<svg height="512" viewBox="0 0 128 128" width="512" xmlns="http://www.w3.org/2000/svg" xmlns:xlink="http://www.w3.org/1999/xlink"><linearGradient id="a" gradientUnits="userSpaceOnUse" x1="109.615" x2="18.385" y1="109.615" y2="18.385"><stop offset="0" stop-color="#fd5c70"/><stop offset="1" stop-color="#ffce64"/></linearGradient><path d="m51.24 41.9h-30.12a3.873 3.873 0 0 0 -3.87 3.869v25.883a3.873 3.873 0 0 0 3.87 3.869h30.12a3.873 3.873 0 0 0 3.87-3.869v-25.885a3.873 3.873 0 0 0 -3.87-3.867zm.37 29.754a.37.37 0 0 1 -.37.369h-30.12a.37.37 0 0 1 -.37-.369v-25.887a.37.37 0 0 1 .37-.369h30.12a.37.37 0 0 1 .37.369zm-.37 10.622h-30.12a3.874 3.874 0 0 0 -3.87 3.87v20.734a3.874 3.874 0 0 0 3.87 3.87h30.12a3.874 3.874 0 0 0 3.87-3.87v-20.736a3.874 3.874 0 0 0 -3.87-3.87zm.37 24.606a.37.37 0 0 1 -.37.37h-30.12a.37.37 0 0 1 -.37-.37v-20.738a.37.37 0 0 1 .37-.37h30.12a.37.37 0 0 1 .37.37zm59.14-61.169v22.031a1.75 1.75 0 0 1 -3.5 0v-22.033a.37.37 0 0 0 -.369-.37h-40.762a.37.37 0 0 0 -.369.37v61.17a.369.369 0 0 0 .369.369h40.762a.37.37 0 0 0 .369-.369v-15.935a1.75 1.75 0 0 1 3.5 0v15.935a3.874 3.874 0 0 1 -3.869 3.869h-40.762a3.874 3.874 0 0 1 -3.869-3.869v-61.17a3.874 3.874 0 0 1 3.869-3.87h40.762a3.874 3.874 0 0 1 3.869 3.87zm0 31.148v4.972a1.75 1.75 0 1 1 -3.5 0v-4.974a1.75 1.75 0 1 1 3.5 0zm0-55.74v10.273a3.874 3.874 0 0 1 -3.869 3.869h-85.762a3.874 3.874 0 0 1 -3.869-3.869v-10.275a3.874 3.874 0 0 1 3.869-3.869h12.575a1.75 1.75 0 0 1 0 3.5h-12.575a.369.369 0 0 0 -.369.369v10.275a.369.369 0 0 0 .369.369h85.762a.37.37 0 0 0 .369-.369v-10.275a.37.37 0 0 0 -.369-.369h-49.981a1.75 1.75 0 1 1 0-3.5h49.984a3.874 3.874 0 0 1 3.866 3.869zm-69.69-2.121a1.751 1.751 0 0 1 1.75-1.75h4.971a1.75 1.75 0 1 1 0 3.5h-4.971a1.751 1.751 0 0 1 -1.75-1.75z" fill="url(#a)"/></svg>