<svg height="512" viewBox="0 0 128 128" width="512" xmlns="http://www.w3.org/2000/svg" xmlns:xlink="http://www.w3.org/1999/xlink"><linearGradient id="a" gradientUnits="userSpaceOnUse" x1="111.8" x2="17.879" y1="109.827" y2="15.905"><stop offset="0" stop-color="#fd5c70"/><stop offset="1" stop-color="#ffce64"/></linearGradient><path d="m79.66 67.544v-36.044a7.684 7.684 0 0 0 -7.67-7.68h-58.85a7.688 7.688 0 0 0 -7.68 7.68v41.79a7.319 7.319 0 0 0 .192 1.691 7.593 7.593 0 0 0 5.467 5.711 7.355 7.355 0 0 0 2.021.278h3.44a1.75 1.75 0 0 0 0-3.5h-3.44a3.934 3.934 0 0 1 -1.093-.152 4.132 4.132 0 0 1 -2.985-3.124 3.9 3.9 0 0 1 -.1-.9v-3.956h67.2v3.952a4.179 4.179 0 0 1 -4.17 4.18h-46.302a1.75 1.75 0 1 0 0 3.5h8.025l-1.978 9.239h-1.079a6.945 6.945 0 0 0 -6.937 6.937v5.283a1.75 1.75 0 0 0 1.75 1.75h34.183a1.75 1.75 0 0 0 1.75-1.75v-5.283a6.945 6.945 0 0 0 -6.937-6.937h-1.079l-1.978-9.239h20.58a7.684 7.684 0 0 0 7.67-7.68v-5.659c0-.014.005-.028.005-.043s-.004-.029-.005-.044zm-21.76 29.602v3.533h-30.679v-3.533a3.441 3.441 0 0 1 3.437-3.437h23.809a3.441 3.441 0 0 1 3.433 3.437zm-8.1-6.937h-14.484l1.978-9.239h10.537zm-40.84-24.371v-34.338a4.185 4.185 0 0 1 4.18-4.18h58.85a4.179 4.179 0 0 1 4.17 4.18v34.338zm113.58 2.192v4.98a1.75 1.75 0 0 1 -3.5 0v-4.98a1.75 1.75 0 0 1 3.5 0zm-8.68-33.96h-19.66a8.7 8.7 0 0 0 -8.69 8.68v52.74a8.7 8.7 0 0 0 8.69 8.69h19.66a8.7 8.7 0 0 0 8.68-8.69v-13.36a1.75 1.75 0 0 0 -3.5 0v13.36a5.191 5.191 0 0 1 -5.18 5.19h-19.66a5.2 5.2 0 0 1 -5.19-5.19v-45.435h30.03v8.875a1.75 1.75 0 0 0 3.5 0v-16.18a8.69 8.69 0 0 0 -8.68-8.68zm-24.85 12.485v-3.8a5.191 5.191 0 0 1 5.19-5.18h19.66a5.186 5.186 0 0 1 5.18 5.18v3.805zm15.016 22.783a7.253 7.253 0 1 0 -7.252-7.253 7.262 7.262 0 0 0 7.252 7.253zm0-11a3.753 3.753 0 1 1 -3.752 3.752 3.756 3.756 0 0 1 3.752-3.757zm7.9 20.245a1.75 1.75 0 0 1 -1.75 1.75h-12.3a1.75 1.75 0 1 1 0-3.5h12.3a1.749 1.749 0 0 1 1.748 1.745zm0 7.011a1.749 1.749 0 0 1 -1.75 1.75h-12.3a1.75 1.75 0 0 1 0-3.5h12.3a1.75 1.75 0 0 1 1.748 1.745zm0 7.013a1.75 1.75 0 0 1 -1.75 1.75h-12.3a1.75 1.75 0 1 1 0-3.5h12.3a1.749 1.749 0 0 1 1.748 1.743z" fill="url(#a)"/></svg>