<?xml version="1.0" encoding="utf-8"?>
<!-- Svg Vector Icons : http://www.onlinewebfonts.com/icon -->
<!DOCTYPE svg PUBLIC "-//W3C//DTD SVG 1.1//EN" "http://www.w3.org/Graphics/SVG/1.1/DTD/svg11.dtd">
<svg version="1.1" xmlns="http://www.w3.org/2000/svg" xmlns:xlink="http://www.w3.org/1999/xlink" x="0px" y="0px" viewBox="0 0 1000 1000" enable-background="new 0 0 1000 1000" xml:space="preserve">
<metadata> Svg Vector Icons : http://www.onlinewebfonts.com/icon </metadata>
<g><path d="M124.3,541.4c-32.1,0-62.6-11.8-84.3-32.7c-19.3-18.6-30-42.9-30-68.5c0-25.5,10.6-49.9,30-68.5c22.8-22,55.4-33.9,89.3-32.6l157.5,6c42.8,1.6,82.8,19.5,112.5,50.4c29.7,30.9,46.1,71.5,46.1,114.4v19.4l-316.1,12C127.6,541.4,125.9,541.4,124.3,541.4z M124.2,379.4c-21.7,0-42.1,7.7-56.3,21.4c-8,7.7-17.6,20.9-17.6,39.5c0,18.6,9.6,31.7,17.6,39.5c15,14.4,36.8,22.2,59.8,21.3l275.9-10.5c-9-58.1-57.7-102.9-118.4-105.2l-157.5-6C126.5,379.4,125.4,379.4,124.2,379.4z"/><path d="M875.7,458.6c32.1,0,62.6,11.8,84.3,32.7c19.3,18.6,30,42.9,30,68.5c0,25.5-10.6,49.9-30,68.5c-22.8,22-55.4,33.9-89.3,32.6l-157.5-6c-42.8-1.6-82.8-19.5-112.5-50.4c-29.7-30.9-46.1-71.5-46.1-114.4v-19.4l316.1-12C872.4,458.6,874.1,458.6,875.7,458.6z M875.8,620.6c21.7,0,42.1-7.7,56.3-21.4c8-7.7,17.6-20.9,17.6-39.5s-9.6-31.7-17.6-39.5c-15-14.4-36.8-22.2-59.8-21.3l-275.9,10.5c9,58.1,57.7,102.9,118.4,105.2l157.5,6C873.5,620.6,874.6,620.6,875.8,620.6z"/><path d="M473.7,124.3c0-32.1,11.8-62.6,32.7-84.3c18.6-19.3,42.9-30,68.5-30c25.5,0,49.9,10.6,68.5,30c22,22.8,33.9,55.4,32.6,89.3l-6,157.5c-1.6,42.8-19.5,82.8-50.4,112.5c-30.9,29.7-71.5,46.1-114.4,46.1h-19.4l-12-316.1C473.7,127.6,473.7,125.9,473.7,124.3z M635.7,124.2c0-21.7-7.7-42.1-21.4-56.3c-7.7-8-20.9-17.6-39.5-17.6c-18.6,0-31.7,9.6-39.5,17.6c-14.4,15-22.2,36.8-21.3,59.8l10.5,275.9c58.1-9,102.9-57.7,105.2-118.4l6-157.5C635.7,126.5,635.7,125.4,635.7,124.2z"/><path d="M556.5,875.7c0,32.1-11.8,62.6-32.7,84.3c-18.6,19.3-42.9,30-68.5,30c-25.5,0-49.9-10.7-68.5-30c-22-22.8-33.9-55.4-32.6-89.3l6-157.5c1.6-42.8,19.5-82.8,50.4-112.5c30.9-29.7,71.5-46.1,114.4-46.1h19.4l12,316.1C556.5,872.4,556.5,874.1,556.5,875.7z M394.5,875.8c0,21.7,7.7,42.1,21.4,56.3c7.7,8,20.9,17.6,39.5,17.6c18.6,0,31.7-9.6,39.5-17.6c14.4-15,22.2-36.8,21.3-59.8l-10.5-275.9c-58.1,9-102.9,57.7-105.2,118.4l-6,157.5C394.5,873.5,394.5,874.6,394.5,875.8z"/><path d="M406.5,498.6c0,52.4,42.5,95,95,95c52.5,0,95-42.5,95-95c0-52.5-42.5-95-95-95C449,403.6,406.5,446.1,406.5,498.6L406.5,498.6z"/></g>
</svg>