<svg id="Layer_1" enable-background="new 0 0 128 128" height="512" viewBox="0 0 128 128" width="512" xmlns="http://www.w3.org/2000/svg" xmlns:xlink="http://www.w3.org/1999/xlink"><linearGradient id="SVGID_1_" gradientTransform="matrix(1 0 0 -1 0 127.89)" gradientUnits="userSpaceOnUse" x1="97.099" x2="30.886" y1="18.126" y2="84.341"><stop offset="0" stop-color="#d9176c"/><stop offset="1" stop-color="#fcbc40"/></linearGradient><path d="m109.7 73.2c-4.1-2.1-14.1-7.3-18.8-9.7-.5-.3-1.1-.3-1.6 0-4.7 2.4-14.1 7.3-18.8 9.7-.7.4-1 1-1 1.6v20.6c0 .6.3 1.2.9 1.5 1.4.7 16.7 8.7 18.9 9.8.6.3 1.1.3 1.6 0 2.2-1.1 17-8.7 18.9-9.8.6-.3.9-.9.9-1.5 0-5.2 0-15.5 0-20.6.1-1.1-.8-1.5-1-1.6zm-19.6-6.2 15 7.7-15 7.7-15-7.7zm-17.1 10.6 15.4 7.9v16.7l-15.4-7.9zm34.3 16.7-15.4 7.9v-16.7l15.4-7.9zm-49.8-21.1c-1.4-.7-17.2-8.9-18.8-9.7-.5-.3-1.1-.3-1.6 0-4.7 2.4-18.8 9.7-18.8 9.7-.6.3-1 .9-1 1.6v20.6c0 .6.3 1.2.9 1.5 1.7.9 17.2 8.9 18.9 9.8.6.3 1.1.3 1.6 0 2.2-1.1 17.5-9 18.9-9.8.6-.3.9-.9.9-1.5 0-5.2 0-15.5 0-20.6 0-.7-.4-1.3-1-1.6zm-19.6-6.2 15 7.7-15 7.7-15-7.7zm-17.1 10.6 15.4 7.9v16.7l-15.4-7.9zm34.2 16.7-15.4 7.9v-16.7l15.4-7.9zm29.4-42.7c.5.8.2 1.9-.7 2.3l-1.1.6c-.9.4-1.9.1-2.4-.8s-.1-1.9.8-2.4l1-.5c.9-.4 1.9-.1 2.4.8zm-19.6 12.1c2.4-1.2 9.4-4.9 9.4-4.9.9-.4 1.2-1.5.8-2.4s-1.5-1.2-2.4-.8l-6.9 3.6v-16.7l15.4-7.9v9c0 1 .8 1.8 1.8 1.8s1.8-.8 1.8-1.8c0 0 0-8.8 0-11.8 0-.6-.3-1.2-1-1.6-1.3-.7-17.7-9.1-18.8-9.7-.5-.3-1.1-.3-1.6 0-1.4.7-17.7 9.1-18.9 9.8-.6.3-.9.9-.9 1.5v20.6c0 .8.4 1.2 1 1.6 1 .5 18.1 9.4 18.8 9.7.5.3 1 .3 1.5 0zm-.8-39.7 15 7.7-15 7.7-15-7.7zm-17.1 10.6 15.4 7.9v16.7l-15.4-7.9z" fill="url(#SVGID_1_)"/></svg>