<svg height="512" viewBox="0 0 128 128" width="512" xmlns="http://www.w3.org/2000/svg" xmlns:xlink="http://www.w3.org/1999/xlink"><linearGradient id="a" gradientUnits="userSpaceOnUse" x1="112.253" x2="15.747" y1="104.058" y2="7.552"><stop offset="0" stop-color="#fd5c70"/><stop offset="1" stop-color="#ffce64"/></linearGradient><path d="m115.7 13.79h-27.98a1.75 1.75 0 0 0 0 3.5h27.98a3.254 3.254 0 0 1 3.25 3.25v56.778h-109.9v-56.778a3.254 3.254 0 0 1 3.25-3.25h20.16a1.75 1.75 0 0 0 0-3.5h-20.16a6.758 6.758 0 0 0 -6.75 6.75v70.53a6.758 6.758 0 0 0 6.75 6.75h34.35v5.885h-7.467a4.755 4.755 0 0 0 -4.75 4.75v4a1.749 1.749 0 0 0 1.75 1.75h55.455a1.75 1.75 0 0 0 1.75-1.75v-4a4.756 4.756 0 0 0 -4.75-4.75h-7.288v-5.885h34.35a6.758 6.758 0 0 0 6.75-6.75v-70.53a6.758 6.758 0 0 0 -6.75-6.75zm3.25 67.028v10.25a3.254 3.254 0 0 1 -3.25 3.25h-103.4a3.254 3.254 0 0 1 -3.25-3.25v-10.25zm-29.062 29.887h-51.955c.156-.975-.579-3.5 1.25-3.5h49.455c1.831 0 1.096 2.539 1.25 3.5zm-12.038-7h-27.7v-5.885h27.7zm-23.93-88.165a1.749 1.749 0 0 1 1.75-1.75h22.93a1.75 1.75 0 0 1 0 3.5h-22.93a1.749 1.749 0 0 1 -1.75-1.75zm-14.09 0a1.749 1.749 0 0 1 1.75-1.75h4.97a1.75 1.75 0 0 1 0 3.5h-4.97a1.749 1.749 0 0 1 -1.75-1.75zm18.512 72.028a1.75 1.75 0 0 1 1.75-1.75h7.636a1.75 1.75 0 0 1 0 3.5h-7.636a1.749 1.749 0 0 1 -1.75-1.75z" fill="url(#a)"/></svg>