<svg height="512" viewBox="0 0 128 128" width="512" xmlns="http://www.w3.org/2000/svg" xmlns:xlink="http://www.w3.org/1999/xlink"><linearGradient id="a" gradientUnits="userSpaceOnUse" x1="113.412" x2="24.708" y1="112.421" y2="23.717"><stop offset="0" stop-color="#c92b2e"/><stop offset="1" stop-color="#ffa71d"/></linearGradient><path d="m15.32 97.71v-10.81a1.75 1.75 0 0 1 3.5 0v10.81a1.75 1.75 0 0 1 -3.5 0zm97.36-47.59v60.36a6.482 6.482 0 0 1 -6.48 6.47h-84.4a6.482 6.482 0 0 1 -6.48-6.47v-2.02a1.75 1.75 0 0 1 3.5 0v2.02a2.978 2.978 0 0 0 2.98 2.97h84.4a2.978 2.978 0 0 0 2.98-2.97v-42.74h-90.36v8.41a1.75 1.75 0 0 1 -3.5 0v-42.32a1.751 1.751 0 0 1 1.288-1.688c151.615-41.442 14.434-3.942 89.6-24.5a1.75 1.75 0 0 1 2.163 1.278l4.62 19.18a1.748 1.748 0 0 1 -1.224 2.093l-34.617 9.8-29.562 8.377h49.292a1.75 1.75 0 0 1 0 3.5h-9.689l-9.875 12.37h31.864v-12.37h-1.56a1.75 1.75 0 0 1 0-3.5h3.31a1.751 1.751 0 0 1 1.75 1.75zm-29.966 1.75h-26.532l-9.876 12.37h26.532zm-35.532-7.023 28.318-8.024 11.444-20.279-28.138 7.692zm58.21-33.347-13.7 3.75-11.409 20.218 28.911-8.184zm-86.572 23.666v4.253h16.157a1.751 1.751 0 0 1 1.75 1.75v6.638l5.673-1.607 11.655-20.666zm0 7.753v14.4h14.4v-14.4zm0 21.321h23.008l3.018-3.781 6.854-8.589h-14.973v7.2a1.75 1.75 0 0 1 -1.75 1.75h-16.157zm36.57 40.777a1.75 1.75 0 0 1 -.875-1.515v-25.812a1.75 1.75 0 0 1 2.625-1.516l22.354 12.906a1.75 1.75 0 0 1 0 3.031l-22.354 12.906a1.748 1.748 0 0 1 -1.75 0zm2.625-4.547 17.1-9.875-17.1-9.874z" fill="url(#a)"/></svg>