<?xml version="1.0" standalone="no"?>
<!DOCTYPE svg PUBLIC "-//W3C//DTD SVG 20010904//EN"
 "http://www.w3.org/TR/2001/REC-SVG-20010904/DTD/svg10.dtd">
<svg version="1.0" xmlns="http://www.w3.org/2000/svg"
 width="472.000000pt" height="463.000000pt" viewBox="0 0 472.000000 463.000000"
 preserveAspectRatio="xMidYMid meet">

<g transform="translate(0.000000,463.000000) scale(0.100000,-0.100000)"
fill="#000000" stroke="none">
<path d="M493 4372 c-92 -33 -167 -111 -194 -202 -6 -23 -9 -656 -7 -1875 l3
-1840 22 -40 c26 -48 94 -116 143 -141 34 -18 101 -19 1895 -19 l1860 0 48 25
c58 29 112 86 141 149 l21 46 0 1850 0 1850 -27 51 c-31 59 -84 108 -147 138
l-46 21 -1830 2 c-1736 2 -1833 2 -1882 -15z m3700 -126 c41 -17 81 -62 96
-105 8 -25 11 -514 11 -1825 0 -1720 -1 -1793 -19 -1831 -21 -46 -54 -79 -94
-94 -20 -8 -579 -11 -1835 -11 l-1807 0 -40 23 c-22 13 -49 40 -62 62 l-23 40
0 1815 0 1815 23 40 c13 22 40 49 62 62 l40 23 1808 0 c1513 0 1813 -2 1840
-14z"/>
<path d="M1421 3370 c-81 -19 -127 -81 -136 -183 -3 -39 -5 -459 -3 -932 3
-790 4 -863 20 -891 21 -39 71 -82 106 -92 15 -4 221 -7 457 -7 406 0 432 1
462 19 31 19 32 19 70 0 36 -18 65 -19 473 -19 392 0 438 2 466 17 49 27 81
73 94 131 7 37 10 322 8 943 -3 817 -4 892 -20 920 -21 39 -71 82 -106 92 -15
4 -220 7 -457 7 -406 0 -432 -1 -462 -19 -31 -19 -32 -19 -70 0 -35 18 -67 19
-453 21 -228 1 -430 -2 -449 -7z m857 -142 c7 -7 12 -43 12 -90 l0 -78 -435
-2 -435 -3 0 81 c0 49 5 85 12 92 17 17 829 17 846 0z m1010 0 c7 -7 12 -43
12 -90 l0 -78 -435 -2 -435 -3 0 81 c0 49 5 85 12 92 17 17 829 17 846 0z
m-1024 -298 l26 -10 0 -748 c0 -568 -3 -751 -12 -760 -17 -17 -829 -17 -846 0
-9 9 -12 190 -12 754 l0 743 22 15 c19 14 75 16 410 16 227 0 397 -4 412 -10z
m1014 -6 l22 -15 0 -749 c0 -731 0 -750 -19 -760 -13 -6 -162 -10 -416 -10
-254 0 -403 4 -416 10 -19 10 -19 29 -19 766 l0 755 23 9 c12 5 198 9 412 9
338 1 394 -1 413 -15z"/>
</g>
</svg>
