<svg height="512" viewBox="0 0 128 128" width="512" xmlns="http://www.w3.org/2000/svg" xmlns:xlink="http://www.w3.org/1999/xlink"><linearGradient id="a" gradientUnits="userSpaceOnUse" x1="101.414" x2="28.048" y1="100.783" y2="27.418"><stop offset="0" stop-color="#f66d82"/><stop offset="1" stop-color="#fdcc57"/></linearGradient><path d="m18.126 80.655a1.75 1.75 0 0 0 3.469-.47 42.088 42.088 0 0 1 35.465-47.405 42.639 42.639 0 0 1 12.469 0 42.093 42.093 0 0 1 22.59 72.313 1.75 1.75 0 1 0 2.395 2.552 45.608 45.608 0 0 0 12.208-47.155l.526-.883a19.4 19.4 0 0 0 .665-18.7l.638-.638a6.015 6.015 0 1 0 -8.617-8.392l-.513.513a19.3 19.3 0 0 0 -17.584-.028l-.43.22a45.384 45.384 0 0 0 -9.871-2.989v-6.743h9.62a1.75 1.75 0 0 0 1.75-1.75v-6.63a6.5 6.5 0 0 0 -6.49-6.49h-26.246a6.5 6.5 0 0 0 -6.49 6.49v6.63a1.75 1.75 0 0 0 1.75 1.75h9.62v6.725a45.057 45.057 0 0 0 -13.08 4.541l-3.712-4.483a5.7 5.7 0 0 0 -3.885-2.051 5.632 5.632 0 0 0 -4.157 1.288l-3.5 2.892a5.714 5.714 0 0 0 -.753 8.043l3.431 4.148a45.28 45.28 0 0 0 -11.268 36.702zm87.946-42.855-.063.063a19.545 19.545 0 0 0 -3.546-3.561 2.513 2.513 0 1 1 3.609 3.498zm-7.239-1.74a15.518 15.518 0 0 1 3.542 2.9 15.9 15.9 0 0 1 2.727 17.2 46.071 46.071 0 0 0 -19.57-21.56 15.791 15.791 0 0 1 13.301 1.463zm-30.793-7a47.148 47.148 0 0 0 -9.49 0v-6.21h9.49zm-20.86-9.71v-4.88a2.993 2.993 0 0 1 2.99-2.99h26.25a2.994 2.994 0 0 1 2.99 2.99v4.88zm-18.523 18.224a2.215 2.215 0 0 1 .287-3.115l3.506-2.9a2.171 2.171 0 0 1 1.6-.5 2.215 2.215 0 0 1 1.511.8l3.339 4.031a46.148 46.148 0 0 0 -7.062 5.524zm3.361 69.948a45.906 45.906 0 0 1 -11.531-17.439 1.75 1.75 0 1 1 3.285-1.206 42.391 42.391 0 0 0 10.65 16.1 1.75 1.75 0 1 1 -2.4 2.544zm7.724 5.9a1.75 1.75 0 1 1 1.817-2.992 41.979 41.979 0 0 0 43.4.095 1.75 1.75 0 0 1 1.8 3 45.492 45.492 0 0 1 -47.02-.1zm23.589-2.4a36.652 36.652 0 0 0 36.495-38.994 36.6 36.6 0 1 0 -36.495 38.994zm2.043-69.635a33.09 33.09 0 1 1 -33.911 42.056 33.091 33.091 0 0 1 33.911-42.056zm-2.074 16.623a1.749 1.749 0 0 1 -1.75-1.75v-8.181a1.75 1.75 0 0 1 3.5 0v8.181a1.75 1.75 0 0 1 -1.75 1.75zm-26.347 18.154a1.75 1.75 0 0 1 0-3.5h8.183a1.75 1.75 0 1 1 0 3.5zm26.347 26.352a1.75 1.75 0 0 1 -1.75-1.75v-8.183a1.75 1.75 0 0 1 3.5 0v8.183a1.75 1.75 0 0 1 -1.75 1.75zm18.161-26.338a1.75 1.75 0 0 1 0-3.5h8.183a1.75 1.75 0 0 1 0 3.5z" fill="url(#a)"/></svg>